<svg version="1.1" xmlns="http://www.w3.org/2000/svg" viewBox="0 0 534 289.9834605597964" width="534" height="289.9834605597964">
  <!-- svg-source:excalidraw -->
  
  <defs>
    <style>
      @font-face {
        font-family: "Virgil";
        src: url("https://excalidraw.com/Virgil.woff2");
      }
      @font-face {
        font-family: "Cascadia";
        src: url("https://excalidraw.com/Cascadia.woff2");
      }
    </style>
  </defs>
  <g stroke-linecap="round" transform="translate(85.99995000000001 10) rotate(0 180.9999999999999 134.4834605597964)"><path d="M1.4 0.86 L362.67 -0.86 L360.42 270 L0.48 270.29" stroke="none" stroke-width="0" fill="#ffffffff"></path><path d="M-1.14 -1.03 C113.73 0.87, 226.81 1.18, 361.2 0.37 M-0.04 -0.23 C79.95 -1.31, 159.14 -1.18, 361.98 -0.05 M362.74 1.49 C361.3 58.36, 360.73 120.21, 361.5 269.67 M361.91 -0.55 C362.23 58.76, 361.34 117.15, 361.68 268.71 M361.44 268.82 C256.01 270.26, 148.33 271.04, -1.21 268.67 M361.68 268.65 C273.14 269.94, 182.73 270.23, -0.48 269.47 M0.1 269.29 C-0.31 169.1, -2.4 70.85, 0.48 0.18 M-0.55 269.51 C0.87 167.48, 0.55 65.94, -0.15 0.67" stroke="#000000" stroke-width="1" fill="none"></path></g><g stroke-linecap="round" transform="translate(115.99995000000001 11.483460559796413) rotate(0 28 19.5)"><path d="M-1.85 1.73 L55.85 -0.18 L56.9 39.81 L1.04 39.92" stroke="none" stroke-width="0" fill="#000000"></path><path d="M-1.75 -0.88 C17.52 -1.45, 33.53 0.31, 55.21 -0.09 M0.66 -0.97 C18.95 0.22, 38.92 -0.34, 56.41 0.27 M56.81 1.48 C54.71 13.44, 56.99 26.51, 55.05 38.92 M56.04 0.91 C54.83 9.9, 55.67 21.8, 55.88 38.98 M54.64 37.71 C45.32 38.49, 30.84 39.78, -1.15 38.5 M55.82 38.46 C41.2 38.42, 28.25 38.87, 0.32 38.65 M-1.77 37.62 C-1.29 27.69, 0.35 13.53, 1.01 0.45 M-0.19 39.85 C0.08 28.01, -1.07 16.64, -0.66 0.5" stroke="#000000" stroke-width="1" fill="none"></path></g><g stroke-linecap="round" transform="translate(192.99995 10.483460559796413) rotate(0 28 19.5)"><path d="M-0.09 0.04 L56.62 0.29 L55.85 37.39 L1.11 37.51" stroke="none" stroke-width="0" fill="#000000"></path><path d="M-0.36 -1.08 C12.15 -0.13, 28.03 0.76, 56.64 -0.7 M-0.89 -0.69 C16.22 0.54, 33.92 -0.67, 56.5 0.23 M55.61 1.7 C56.7 10.48, 54.39 20.18, 54.69 39.99 M55.91 0.45 C56.74 8.61, 56.8 16.95, 56.62 39.94 M54.6 40.46 C40.13 38.11, 24.74 39.51, -0.54 40.9 M55.26 39.52 C39.84 39.25, 25.54 39.72, -0.15 38.09 M0.07 40.42 C-1.15 31.67, 1.57 19.87, -1.13 0.44 M-0.36 39.15 C-0.37 28.86, 0.46 19.14, 0.98 -0.57" stroke="#000000" stroke-width="1" fill="none"></path></g><g stroke-linecap="round" transform="translate(271.99995 11.483460559796413) rotate(0 28 19.5)"><path d="M-1.93 0.89 L56.47 1.75 L54.3 37.18 L1.17 38.82" stroke="none" stroke-width="0" fill="#000000"></path><path d="M-1.67 0.33 C18.04 0.98, 35.02 -2.12, 54.42 1.37 M-0.44 0.64 C12.15 -1.35, 21.89 -0.18, 55.46 -0.46 M54.9 -1.11 C56.43 13.44, 57.82 28.53, 55.91 39.04 M55.2 0.55 C55.31 12.82, 56.58 26.59, 55.72 38.11 M54.28 39.81 C40.64 37.68, 26.17 38.13, 1.04 37.89 M55.98 39.29 C37.17 38.98, 16.37 38.74, -0.97 39.38 M1.47 40.64 C-2.02 22.31, -0.2 10.9, 1.22 0.94 M0.85 38.79 C-0.39 28.95, 0.64 17.56, 0.85 -0.43" stroke="#000000" stroke-width="1" fill="none"></path></g><g stroke-linecap="round" transform="translate(358.99995 11.483460559796413) rotate(0 28 19.5)"><path d="M0.47 -0.25 L55.96 -1.67 L54.14 38.95 L-1.36 37.71" stroke="none" stroke-width="0" fill="#000000"></path><path d="M0.23 1.1 C19.83 1.98, 37.57 1.26, 54.33 0.37 M-0.66 0.98 C18.8 0.22, 37.66 0.25, 56.65 0.17 M55.24 -0.43 C55.41 13.34, 57.45 29.75, 55.28 38.55 M55.44 -0.84 C57.23 8.98, 55.77 18.33, 56.97 39.72 M56.11 40.18 C40.05 37.26, 21.9 39.44, -1.26 38.34 M56.53 39.92 C38.29 39.63, 18.66 38.15, 0.49 38.36 M0.47 39.89 C1.5 28.41, 1.32 14.74, 0.83 0.81 M-0.24 38.02 C-0.02 24.82, 1.1 9.76, -0.88 0.05" stroke="#000000" stroke-width="1" fill="none"></path></g><g stroke-linecap="round"><g transform="translate(124.99995000000001 51.48346055979641) rotate(0 -0.20830734604967915 9.936098835114393)"><path d="M-0.22 -0.07 C-0.12 3.34, 1.22 17.76, 1.39 21.02 M-1.8 -1.15 C-1.88 1.9, 0.36 15.81, 0.64 19.43" stroke="#000000" stroke-width="1" fill="none"></path></g></g><g stroke-linecap="round"><g transform="translate(133.99995 50.48346055979641) rotate(0 0.7931045446824214 10.032222394514832)"><path d="M0.7 -0.11 C1.2 3.38, 1.92 16.63, 1.98 19.82 M-0.39 -1.21 C0.12 2.57, 1.43 17.76, 1.54 21.27" stroke="#000000" stroke-width="1" fill="none"></path></g></g><g stroke-linecap="round"><g transform="translate(146.99995 50.48346055979641) rotate(0 -0.23420229393258296 10.722026382479811)"><path d="M0.14 1.13 C0.11 4.49, 0.83 17.74, 0.84 20.76 M-1.24 0.68 C-1.53 3.65, -0.84 15.78, -0.19 19.04" stroke="#000000" stroke-width="1" fill="none"></path></g></g><g stroke-linecap="round"><g transform="translate(159.99995 51.48346055979641) rotate(0 1.148589231856164 10.41081092905253)"><path d="M0.9 0.91 C0.88 4.2, 0.1 16.07, 0.13 19.31 M-0.09 0.34 C0.25 3.81, 2.31 16.91, 2.39 20.48" stroke="#000000" stroke-width="1" fill="none"></path></g></g><g stroke-linecap="round"><g transform="translate(203.99995 51.48346055979641) rotate(0 0.7881929152738394 10.297069135177878)"><path d="M0.79 0.38 C1.26 3.82, 1.76 16.37, 1.84 19.69 M-0.26 -0.47 C0.22 3.24, 1.19 17.36, 1.33 21.06" stroke="#000000" stroke-width="1" fill="none"></path></g></g><g stroke-linecap="round"><g transform="translate(216.99995 49.48346055979641) rotate(0 0.07275086063893355 9.3495084975101)"><path d="M-0.19 -1.14 C-0.17 2.1, -0.52 15.56, -0.19 18.89 M-1.75 0.87 C-1.35 4.27, 1.37 16.73, 1.9 19.84" stroke="#000000" stroke-width="1" fill="none"></path></g></g><g stroke-linecap="round"><g transform="translate(226.99995 49.48346055979641) rotate(0 0.05960278442131539 9.68490229528399)"><path d="M0 -0.13 C0.17 3.11, 1.52 15.9, 1.57 19.39 M-1.45 -1.24 C-1.44 2.16, 0.82 17.24, 0.92 20.61" stroke="#000000" stroke-width="1" fill="none"></path></g></g><g stroke-linecap="round"><g transform="translate(240.99995 50.48346055979641) rotate(0 0.5786752025734643 10.802969868648802)"><path d="M-0.84 1 C-1.01 4.39, -0.55 16.75, -0.1 19.73 M0.92 0.48 C1.02 4.1, 1.94 17.94, 2.03 21.12" stroke="#000000" stroke-width="1" fill="none"></path></g></g><g stroke-linecap="round"><g transform="translate(282.99995 49.48346055979641) rotate(0 0.35114613993090416 9.255320606101293)"><path d="M0.17 -0.5 C0.03 2.81, -0.37 15.67, -0.18 19.2 M-1.2 -1.8 C-1.04 1.69, 1.6 16.9, 1.91 20.31" stroke="#000000" stroke-width="1" fill="none"></path></g></g><g stroke-linecap="round"><g transform="translate(294.99995 49.48346055979641) rotate(0 0.7815077056363293 9.906575969252742)"><path d="M0.62 -1.16 C0.72 1.93, -0.08 16.09, -0.07 19.63 M-0.51 0.84 C0.01 4.62, 2.03 17.54, 2.08 20.98" stroke="#000000" stroke-width="1" fill="none"></path></g></g><g stroke-linecap="round"><g transform="translate(305.99995 50.48346055979641) rotate(0 0.1754986648820136 9.566052520666261)"><path d="M-0.02 -0.26 C0.17 3.2, 1.79 17.27, 1.84 20.58 M-1.48 -1.45 C-1.45 1.68, 0.62 15.08, 1.33 18.76" stroke="#000000" stroke-width="1" fill="none"></path></g></g><g stroke-linecap="round"><g transform="translate(316.99995 49.48346055979641) rotate(0 0.7222424781880932 9.781970399729914)"><path d="M-1.04 0.3 C-0.87 3.58, -0.03 15.76, 0.2 19.09 M0.61 -0.59 C1.24 2.86, 2.12 16.43, 2.49 20.16" stroke="#000000" stroke-width="1" fill="none"></path></g></g><g stroke-linecap="round"><g transform="translate(364.99995 49.48346055979641) rotate(0 1.119080803822726 9.749481326807313)"><path d="M0.78 0.03 C1 3.38, 0.29 15.86, 0.21 19.32 M-0.27 -1 C0.43 2.56, 2.59 17.19, 2.51 20.5" stroke="#000000" stroke-width="1" fill="none"></path></g></g><g stroke-linecap="round"><g transform="translate(375.99995 50.48346055979641) rotate(0 1.5793087695911368 9.96988435382022)"><path d="M1.19 -0.12 C1.1 3.33, 0.51 17.87, 0.4 21.16 M0.36 -1.22 C0.58 1.88, 2.93 15.99, 2.8 19.65" stroke="#000000" stroke-width="1" fill="none"></path></g></g><g stroke-linecap="round"><g transform="translate(388.99995 49.48346055979641) rotate(0 0.6856232277862659 10.538828471172593)"><path d="M0.44 0.86 C0.32 4.23, -0.07 16.53, -0.02 19.53 M-0.79 0.26 C-0.61 3.86, 2.06 17.6, 2.16 20.82" stroke="#000000" stroke-width="1" fill="none"></path></g></g><g stroke-linecap="round"><g transform="translate(401.99995 52.48346055979641) rotate(0 -0.01846530908716204 9.387894470933816)"><path d="M0.28 -0.99 C0.39 2.04, 0.8 15.19, 0.99 18.84 M-1.03 1.1 C-1.11 4.17, -0.28 16.77, 0.04 19.77" stroke="#000000" stroke-width="1" fill="none"></path></g></g><g stroke-linecap="round" transform="translate(211.99995 112.48346055979641) rotate(0 47.5 47.5)"><path d="M0.15 47.83 C0.15 47.83, 0.15 47.83, 0.15 47.83 M0.15 47.83 C0.15 47.83, 0.15 47.83, 0.15 47.83 M2.48 50.38 C16.47 35.49, 27.8 21.24, 41.59 5.8 M2.76 50.56 C14.9 36.7, 25.82 25.7, 40.55 7.86 M7.03 53.27 C19.04 38.02, 34.87 20.07, 49.77 0.9 M6.49 54.68 C17.17 39.26, 31.16 25.02, 49.49 2.23 M10.27 55.08 C18.82 43.93, 34.61 28.85, 52.38 3.85 M8.58 55.95 C24.53 37.57, 42.34 18.12, 52.96 4.69 M12.61 59.22 C24.7 42.28, 42.62 23.77, 56.66 7.08 M10.69 59.31 C21.76 47.75, 31.15 35.91, 56.31 8.74 M13.12 63.07 C25.79 46.72, 40.11 33.89, 58.84 8.7 M15.06 62.48 C24.4 50.08, 33.74 39.7, 58.89 9.73 M15.2 65.35 C31.37 44.11, 50.19 27.06, 63.05 13.61 M17.11 65.01 C26.2 54.24, 37.59 43.08, 61.01 14.65 M18.34 67.12 C36.14 49.86, 51.47 33.02, 63.07 16.49 M19.02 67.8 C33.08 53.7, 45.58 39.69, 64.44 16.6 M21.17 70.2 C34.93 57.94, 43.67 47.03, 67.4 18.2 M23.81 71.13 C35.49 55.85, 48.33 41.11, 67.5 19.87 M25.25 74.1 C38.59 58.42, 51.36 42.45, 68.33 21.5 M26.91 72.23 C38.22 58.15, 50.16 45.17, 68.99 23.19 M28.69 75.45 C40.72 58.83, 56.09 44.48, 72.94 24.7 M28.8 76.24 C39.46 63.79, 50.99 50.25, 73.12 26.01 M29.97 80.96 C46.57 59.48, 63.16 41.26, 74.27 28.12 M30.64 79.82 C45.84 61.97, 59.91 45.69, 75.51 28.57 M34.95 81.83 C48.98 65.38, 63.63 51.51, 78.29 31.77 M34.25 81.11 C47.73 66.43, 61.11 50.33, 78.2 30.12 M36.64 82.74 C46.91 74.21, 56.6 62.13, 80.99 35.06 M37.75 83.31 C53.76 65.98, 68.42 46.78, 81.52 34.27 M40.92 89.22 C53.3 72.79, 65.23 57.29, 85.47 37.19 M40.22 87.7 C48.66 75.55, 59.76 65.55, 85.14 35.96 M42.2 88.61 C57.37 73.67, 70.62 59.51, 86.97 40.9 M43.25 91.16 C58.1 72.45, 72.23 56.75, 86.05 38.79 M46.6 92.53 C61.72 76.63, 76.05 57.77, 87.93 42.07 M45 92.2 C59.11 77.22, 72.41 63.87, 89.42 43.25 M47.6 93.78 C59.97 83.44, 69.29 71.22, 93.09 44.28 M49.79 94.5 C61.09 82.88, 70.75 70.09, 92.69 44.8 M48.34 95.29 C48.34 95.29, 48.34 95.29, 48.34 95.29 M48.34 95.29 C48.34 95.29, 48.34 95.29, 48.34 95.29 M51.31 90.42 C37.41 80.03, 23.54 67.23, 0.12 48.98 M50.18 93.02 C38 79.39, 23.03 68.1, 0.08 47.23 M51.63 87.35 C40.38 77.94, 31.91 66.84, 1.27 46.91 M54.19 89.77 C33.53 72.75, 14.05 53.79, 2.77 46.29 M56.84 85.02 C41.22 73.79, 29.58 62.27, 5.45 42.94 M55.92 85.34 C44.54 75.2, 31.59 64.63, 5.59 43.25 M60.67 83.67 C41.84 70.66, 26.11 55.39, 8.11 38.5 M59.5 84.66 C42.82 68.8, 24.91 52.74, 9.04 38.93 M61.68 81.12 C46.03 64.43, 27.93 53.05, 13.37 38 M63.11 80.75 C41.23 62.9, 22.84 47.34, 12.63 37.06 M62.85 78.71 C48.7 62.15, 32.68 50.14, 12.79 34.84 M65.46 78.27 C52.76 65.8, 39.45 53.5, 13.65 34.8 M66.35 75.17 C55.74 63.61, 41.36 51.11, 16.97 29.27 M68.54 76.04 C58.44 67.17, 48.42 58.51, 17.58 30.25 M70.39 70.7 C58.58 61.67, 45.65 51.79, 17.6 29.7 M71.26 72.61 C61.05 62.57, 49.93 53.23, 20.11 28.33 M74.76 70.73 C55.54 54.06, 34.54 36.54, 24.02 23.95 M73.02 68.72 C56.73 55.38, 41.89 41.51, 22.59 25.6 M76.92 65.33 C61.83 56.71, 50.08 44.7, 25.26 20.57 M76.6 66.25 C61.46 54.46, 47.87 41.65, 25.99 22.24 M78.51 62.39 C63.44 49.76, 43.12 32.83, 29.66 18.71 M78.69 63.99 C65.8 51.87, 52.44 38.88, 27.38 19.45 M81.48 63 C71.38 49.07, 58.27 40.4, 31.63 18.07 M82.79 60.6 C68.77 49.66, 57.16 38.04, 30.65 18.03 M85.58 57.26 C73.83 46.26, 60.99 35.6, 32.47 14.92 M84.73 57.09 C66.02 42.58, 46.92 25.62, 34.22 13.97 M88.5 55.61 C71.56 38.95, 55.22 25.44, 37.97 9.9 M87.62 55.66 C69.67 38.43, 51.55 23.37, 36.5 10.88 M92.38 54.12 C75.96 39.32, 58.07 25.19, 38.42 7.42 M90.35 53.61 C72.71 37.14, 54.77 19.78, 38.9 8.92 M91.85 49.75 C78.83 36.83, 63.89 26.48, 43.22 4.83 M92.49 50.23 C76.77 36.63, 61.27 22.66, 42.24 6.63 M95.68 48.25 C78.16 32.4, 63.96 16.34, 44.89 3.79 M95.82 47.23 C76.59 29.82, 56.5 12.93, 45.78 1.87" stroke="#ced4da" stroke-width="0.5" fill="none"></path><path d="M48.27 0.56 C65.5 15.7, 79.72 33.03, 94.64 49.1 M47.34 -0.01 C67.37 18.9, 85.87 38.48, 95.01 47.46 M93.29 47.05 C80.3 62.74, 66.01 76.65, 46.62 95.13 M94.54 48.99 C76.93 67.11, 59.43 83.93, 48.51 94.47 M47.17 95.48 C36.83 84.73, 26.41 72.18, -1.16 49.78 M48.97 95.58 C34.53 81.47, 19.9 66.69, -0.73 47.11 M-1.9 49.1 C9.14 39.22, 20.3 28.57, 49.29 0.42 M-0.9 47.18 C15.69 32.82, 29.68 19.25, 47.59 0.74" stroke="#000000" stroke-width="1" fill="none"></path></g><g stroke-linecap="round" transform="translate(139.99995 106.48346055979641) rotate(0 20 34)"><path d="M-0.95 -0.46 L39.57 -1.66 L38.04 68.21 L-1.09 69.65" stroke="none" stroke-width="0" fill="#ced4da"></path><path d="M-0.56 0.83 C14.72 -0.37, 29.01 -0.01, 41.73 1.16 M0.22 -0.23 C15.04 0.47, 30.81 -0.22, 40.25 -0.27 M40.8 -1.36 C39.73 26.72, 38.69 51.03, 38.01 66.28 M39.44 1 C39.54 24.23, 40.72 50.27, 39.81 68.84 M39.16 69.98 C30.84 67.15, 23.08 66.85, -0.91 67.53 M40.86 67.75 C26.81 68.84, 12.79 68.49, -0.41 68.07 M1.66 66.55 C-2.29 52.3, -1.92 35.17, 1.1 0.2 M-0.76 68.08 C-0.03 49.69, -0.3 31.1, -0.14 -0.12" stroke="#000000" stroke-width="1" fill="none"></path></g><g stroke-linecap="round" transform="translate(147.99995 118.48346055979641) rotate(0 12 22)"><path d="M-0.46 -0.43 L22.34 -1.96 L24.21 42.91 L1.65 44.49" stroke="none" stroke-width="0" fill="#868e96"></path><path d="M0.83 0.6 C7.79 0.83, 16.57 1.79, 25.16 1.64 M-0.23 -0.24 C6.34 0.2, 11.55 0.19, 23.73 0.76 M22.64 -0.31 C25.29 12.11, 24 24.94, 22.28 45.39 M25 -0.47 C22.77 13.98, 23.68 26.35, 24.84 43.17 M25.98 43.51 C16.15 44.33, 9.14 42.99, -0.47 44.89 M23.75 44.58 C19.64 44.55, 14.15 43.79, 0.07 43.3 M-1.45 42.11 C0.37 26.74, -1.1 13.63, 0.2 -0.53 M0.08 44.42 C0.05 28.03, 0.07 11.61, -0.12 -0.48" stroke="#000000" stroke-width="1" fill="none"></path></g><g stroke-linecap="round" transform="translate(148.99995 119.48346055979641) rotate(0 10 12.5)"><path d="M-0.43 -1.66 L18.04 0.21 L18.91 26.65 L0.49 25.49" stroke="none" stroke-width="0" fill="#000000"></path><path d="M0.6 -0.64 C5.43 -0.36, 11.07 1.08, 21.64 -1.08 M-0.24 0.43 C6.06 -0.21, 11.88 -0.22, 20.76 0.06 M19.69 1.12 C18.75 8.28, 18.11 15.18, 21.39 25.03 M19.53 -0.9 C20.57 5.64, 19.67 12.11, 19.17 24.8 M19.51 23.87 C13.05 23.77, 4.32 24.73, 0.89 23.29 M20.58 25.79 C14.08 25.39, 7.06 25.02, -0.7 25.58 M-1.89 24.97 C-1.73 18.27, 0.89 14.74, -0.53 1.33 M0.42 25.29 C0.34 16.47, 0.05 7.2, -0.48 -0.23" stroke="#000000" stroke-width="1" fill="none"></path></g><g stroke-linecap="round" transform="translate(348.99995 110.48346055979641) rotate(0 20 34)"><path d="M1.6 -1.25 L40.8 -0.62 L41.07 66.81 L0.89 68.03" stroke="none" stroke-width="0" fill="#ced4da"></path><path d="M-0.99 -0.8 C9.57 -0.81, 22.71 0.04, 39.45 1.04 M-0.67 0.53 C12.21 -0.75, 24.53 0.33, 39.4 0.55 M40.7 1.32 C41.89 24.55, 39.39 48.18, 39.98 66.45 M39.53 0.05 C40.86 19.4, 40.9 38.84, 40.52 68.81 M40.64 67.97 C29.28 67.24, 17.37 66.2, -1.28 69.32 M40.9 68.38 C25.87 68.37, 11.2 68.4, 0.47 67.55 M-0.11 67.46 C0.01 47.46, -1.32 28.41, -1.29 0.57 M0.98 67.51 C-0.7 40.68, 0.78 13.59, -0.16 -0.3" stroke="#000000" stroke-width="1" fill="none"></path></g><g stroke-linecap="round" transform="translate(356.99995 122.48346055979641) rotate(0 12 22)"><path d="M0.8 -0.62 L25.07 -1.19 L24.89 44.03 L-0.39 44.31" stroke="none" stroke-width="0" fill="#868e96"></path><path d="M-1.18 -0.58 C9.78 0.37, 16.58 1.14, 24.16 0.02 M-0.11 -0.73 C7.23 0.23, 14.07 0.42, 24.44 0.74 M25.39 1.13 C23.04 15.04, 24.14 25.87, 23.77 44.08 M24.83 -0.23 C24.67 13.75, 24.31 29.16, 23.6 44.42 M23.66 43.62 C17.23 42.58, 12.9 45.32, 1.27 45.43 M24.4 44.43 C17.44 44.55, 10.8 43.64, 0 44.85 M0.59 43.84 C-0.71 32.1, -1.27 18.41, 1.89 0.28 M-0.6 43.51 C0.44 32.79, -0.59 22.79, 0.8 -0.63" stroke="#000000" stroke-width="1" fill="none"></path></g><g stroke-linecap="round" transform="translate(357.99995 123.48346055979641) rotate(0 10 12.5)"><path d="M1.07 -1.19 L20.89 0.03 L19.61 25.31 L1.62 23.02" stroke="none" stroke-width="0" fill="#000000"></path><path d="M1.21 0.27 C4.65 1.1, 10.56 0.08, 20.11 -1.35 M-0.11 0.35 C6.46 0.69, 14.56 0.89, 20.12 0.35 M18.88 1.33 C20.16 7.59, 19.95 18.37, 20.44 24.07 M20.88 -0.43 C20.72 8.42, 19.8 15.64, 19.05 25.32 M18.14 23.58 C12.75 26.28, 9.33 26.39, -0.31 26.79 M20.27 25.46 C13.72 24.64, 6.49 25.94, -0.03 24.94 M-0.74 26.18 C-1.37 18.74, 1.82 11.62, -1.25 1.96 M0.88 24.25 C-0.01 18.43, 0.95 11.82, 0.4 -0.31" stroke="#000000" stroke-width="1" fill="none"></path></g><g stroke-linecap="round" transform="translate(345.99995 110.48346055979641) rotate(0 20 34)"><path d="M1.34 -1.36 L38.12 -0.6 L38.8 68.24 L-0.29 69.24" stroke="none" stroke-width="0" fill="#ced4da"></path><path d="M1.01 -0.9 C13.28 -1.05, 30.4 0.79, 38.57 -0.55 M0.67 -0.09 C12.55 -0.1, 24.98 0.58, 39.59 -0.86 M40.29 0.8 C38.73 15.68, 37.41 28.92, 39.65 67.21 M39.97 -0.57 C40.48 13.36, 40.71 28.41, 40.62 67.69 M39.31 68.54 C28.7 70.03, 15.78 67.48, 1.19 67.84 M39.83 67.82 C25.9 68.34, 13.23 68.6, 0.32 68.31 M1.86 67.48 C-2.5 54.99, -1.52 37.44, -0.21 1.64 M-0.29 68.81 C0.62 47.22, 1.2 28.3, 0.47 0.19" stroke="#000000" stroke-width="1" fill="none"></path></g><g stroke-linecap="round" transform="translate(353.99995 122.48346055979641) rotate(0 12 22)"><path d="M1.82 1.79 L23.72 0.38 L24.33 43.81 L0.45 45.7" stroke="none" stroke-width="0" fill="#868e96"></path><path d="M-1.11 -0.89 C6.52 -1.68, 9.02 1.22, 22.17 1.8 M-0.03 0.8 C6.85 0.14, 15.16 -0.74, 24.51 -0.35 M23.4 -0.89 C22.18 13.94, 22.4 29.68, 23.52 42.89 M23.03 -0.09 C24.49 14.33, 23.41 28.77, 24.48 44.32 M22.39 45.14 C15.32 43.28, 6.3 43.9, -1.45 42.53 M23.98 43.91 C15.79 43.38, 5.09 44.42, 0.78 43.63 M-0.58 44.08 C0.8 35.5, 0.89 24.87, 0.75 1.28 M-0.12 44.99 C-0.44 28.5, 0.12 12.67, 0.03 0.65" stroke="#000000" stroke-width="1" fill="none"></path></g><g stroke-linecap="round" transform="translate(354.99995 123.48346055979641) rotate(0 10 12.5)"><path d="M-0.11 1.55 L19.33 0.17 L20.97 23.95 L0.36 25.55" stroke="none" stroke-width="0" fill="#000000"></path><path d="M0.08 0.87 C7.71 1.02, 13.31 0.81, 21.28 0.93 M0.99 -0.59 C5.03 -0.01, 9.74 0.05, 20.65 0.91 M20.33 -0.19 C20.41 11.43, 19.26 20.87, 20.74 25.8 M20.93 -0.8 C19.54 10.14, 19.7 18.95, 19.79 25.46 M20.89 26.16 C10.66 26.78, 6.86 26.37, -1.28 24.35 M20.08 24.65 C15.12 25.42, 8.68 24.92, 0.73 24.68 M-1.62 24.9 C0.69 20.11, -0.35 15.74, -1.81 -1.88 M-0.68 24.48 C0.31 20, 0.76 15.42, -0.58 -0.49" stroke="#000000" stroke-width="1" fill="none"></path></g><g stroke-linecap="round" transform="translate(157.99995 218.4834605597964) rotate(0 110 8.5)"><path d="M1.36 -0.12 L221.01 1.35 L221.33 17.01 L-1.73 18.81" stroke="none" stroke-width="0" fill="#ced4da"></path><path d="M0.32 -1.32 C54.71 -1.82, 105.46 0.91, 219.87 0.66 M0.84 0.47 C78.38 -2.11, 158.46 -1.8, 219.77 0.57 M218.61 0.13 C219.44 3.91, 220.26 9.64, 220.36 15.33 M219.59 -0.26 C220.06 4.03, 220.52 6.85, 220.5 17.18 M220.32 16.31 C160.04 17.95, 102.17 15.26, 1.19 18.05 M220.74 17.64 C163.66 17.59, 108.62 17.59, 0.57 17.1 M0.71 18.46 C-1.1 12.07, -0.07 7.87, -0.92 1.32 M-0.32 17.56 C-0.66 11.91, -0.78 7.7, 0.78 -0.59" stroke="#000000" stroke-width="1" fill="none"></path></g><g stroke-linecap="round" transform="translate(161.99995 223.4834605597964) rotate(0 5 4)"><path d="M1.33 -0.91 L10.34 1.21 L11.85 8.33 L-1.52 9" stroke="none" stroke-width="0" fill="#000000"></path><path d="M0.24 -0.99 C3.35 -0.87, 6.89 0.04, 9.99 0.32 M0.14 -0.39 C2.72 0.19, 6.71 -0.46, 10.47 0.48 M9.72 0.34 C10.71 1.71, 9.78 5.32, 10.27 7.85 M10.28 0.33 C10.22 2.93, 10.13 5.46, 10.35 8.22 M9.27 7.78 C7.8 8.27, 5.2 8.48, 0.34 7.46 M9.72 8.24 C7.62 8.17, 5.8 8.03, 0.11 7.85 M-0.05 7.53 C-0.55 5.14, 0.32 2.06, -0.39 0.17 M0.16 7.93 C0.08 5.6, -0.11 3.12, -0.3 0.26" stroke="#000000" stroke-width="1" fill="none"></path></g><g stroke-linecap="round" transform="translate(176.99995 223.4834605597964) rotate(0 5 4)"><path d="M0.1 0.67 L10.37 -1.68 L11.53 7.01 L-1.63 7.52" stroke="none" stroke-width="0" fill="#000000"></path><path d="M-0.73 -0.22 C2.96 0.46, 5.5 0.67, 10.34 -0.54 M-0.28 0.24 C2.25 0.08, 5.05 -0.06, 10.11 -0.15 M9.95 -0.47 C9.56 3.03, 10.44 5.84, 9.61 8.17 M10.16 -0.07 C10.18 2.52, 9.99 4.95, 9.7 8.26 M10.6 8.93 C6.5 7.26, 3.17 7.68, 0.21 7.09 M9.9 7.53 C7.09 7.48, 4.71 8.28, 0.14 8.49 M0.24 8.62 C0.06 5.37, -0.15 3.98, 0.47 -0.24 M0.24 8.39 C-0.07 4.92, 0.13 2.06, -0.33 0.2" stroke="#000000" stroke-width="1" fill="none"></path></g><g stroke-linecap="round" transform="translate(191.99995 223.4834605597964) rotate(0 5 4)"><path d="M-0.15 -1.51 L10.58 1.25 L8.54 8.63 L-0.85 9.36" stroke="none" stroke-width="0" fill="#000000"></path><path d="M0.71 0.86 C3.16 -0.66, 5.82 0.04, 10.47 -0.06 M0.32 0.2 C2.72 -0.1, 5.19 0.07, 9.93 0.04 M9.64 0.14 C10.53 2.55, 10.18 3, 10.4 7.73 M9.94 -0.31 C9.85 2.19, 9.7 4.77, 9.97 8.28 M10.22 7.26 C7.02 8.72, 3.51 7.1, -0.17 7.85 M10.5 8.39 C6.72 8.55, 2.84 7.82, 0.26 7.79 M0.27 8.15 C-0.71 6.86, -0.44 3.86, -0.19 0.13 M0.29 7.78 C0.06 5.04, 0.36 1.92, -0.16 0.3" stroke="#000000" stroke-width="1" fill="none"></path></g><g stroke-linecap="round" transform="translate(205.99995 223.4834605597964) rotate(0 5 4)"><path d="M0.43 1.13 L10.26 0.88 L8.3 9.81 L1.37 9.83" stroke="none" stroke-width="0" fill="#000000"></path><path d="M0.65 0.67 C2.4 0.25, 6.31 1, 10.16 -0.76 M-0.46 -0.19 C3.42 -0.4, 6.9 -0.49, 9.72 -0.45 M10.78 -0.45 C10.23 1.75, 10.3 5.3, 10.07 7.32 M9.88 0.24 C10.39 2.58, 10.23 4.92, 10.01 7.81 M10.5 8.05 C6.82 8.1, 2.12 8.68, -0.5 7.19 M9.9 8.18 C7.6 7.79, 4.53 7.96, 0.42 7.6 M-0.6 8.23 C0.44 5.33, 0.19 3.48, 0.54 -0.67 M-0.06 8.35 C0.42 5.78, 0.24 3.84, 0.04 0.12" stroke="#000000" stroke-width="1" fill="none"></path></g><g stroke-linecap="round" transform="translate(219.99995 223.4834605597964) rotate(0 5 4)"><path d="M0.94 0.79 L8.16 1.9 L10.17 6.11 L-0.06 9.65" stroke="none" stroke-width="0" fill="#000000"></path><path d="M-0.74 0.31 C4.76 0.07, 7.11 -0.19, 9.85 0.59 M0.39 0.3 C3.19 -0.09, 5.16 0.16, 9.79 -0.41 M10.15 -0.67 C10.61 2.4, 9.35 5.41, 10.13 8.48 M9.78 0.04 C9.95 2.58, 9.71 4.33, 10.3 7.97 M9.27 8.31 C7.33 8.74, 4.67 7.48, -0.66 8.96 M9.65 8.24 C6.81 8.14, 4.48 8.2, 0.28 8.06 M0.55 8.73 C-0.48 5.1, 0.8 3.1, -0.22 -0.73 M-0.08 8.11 C-0.14 5.25, -0.23 2.49, 0.25 -0.17" stroke="#000000" stroke-width="1" fill="none"></path></g><g stroke-linecap="round" transform="translate(233.99995 223.4834605597964) rotate(0 5 4)"><path d="M-1.75 -0.67 L11.5 1.95 L10.32 9.1 L-0.97 8.82" stroke="none" stroke-width="0" fill="#000000"></path><path d="M-0.2 0.36 C3.48 -0.6, 5.63 -0.26, 10.85 -0.8 M-0.38 0.15 C2.92 -0.36, 5.38 -0.21, 10.34 -0.42 M9.87 0.7 C10.68 1.37, 10.33 3.3, 10.08 8.25 M10.18 -0.34 C10.41 2.85, 10.41 4.87, 9.93 8.37 M10.43 7.77 C5.55 7.71, 2.76 7.5, -0.03 7.37 M10.24 8.2 C6.61 8.43, 4.17 7.49, -0.02 8.41 M0.74 8.22 C0.65 4.44, 0.69 1.85, 0.12 0.19 M-0.06 7.63 C-0.35 6.22, -0.03 3.79, -0.38 -0.26" stroke="#000000" stroke-width="1" fill="none"></path></g><g stroke-linecap="round" transform="translate(247.99995 223.4834605597964) rotate(0 5 4)"><path d="M1.13 -1.65 L9.16 0.2 L9.86 8.16 L0.92 6.68" stroke="none" stroke-width="0" fill="#000000"></path><path d="M-0.71 0.1 C4.23 0.17, 8.41 0.08, 10.44 -0.85 M-0.34 -0.09 C4.36 0.28, 7.67 -0.55, 10.21 -0.11 M9.67 -0.02 C9.48 1.79, 10.48 3.35, 10.38 8.31 M9.62 -0.01 C10.41 1.86, 10.39 3.37, 10.37 8.11 M9.3 8.15 C6.35 7.55, 1.97 7.88, -0.15 7.08 M9.66 7.53 C7.59 7.55, 5.68 8.36, 0.49 8.08 M0.29 8.29 C0.05 5.26, 0.78 2.67, -0.65 -0.73 M-0.13 8.32 C-0.2 6.09, 0.29 3.68, 0.39 -0.1" stroke="#000000" stroke-width="1" fill="none"></path></g><g stroke-linecap="round" transform="translate(261.99995 223.4834605597964) rotate(0 5 4)"><path d="M1.49 1.13 L11.17 0.09 L8.52 7.33 L1.73 6.23" stroke="none" stroke-width="0" fill="#000000"></path><path d="M-0.28 -0.92 C3.24 -0.3, 4.93 -0.27, 10.26 -0.41 M0.31 -0.21 C3.21 0.2, 5.49 0.48, 10.04 -0.47 M10.62 0.07 C10.81 2.59, 10.78 3.98, 10.75 7.44 M9.9 -0.09 C9.96 2.15, 9.65 5.22, 9.95 7.73 M9.67 8.75 C8.92 8.07, 6.44 7.43, 0.41 8.37 M10.46 8.22 C6.23 7.56, 3.19 8.05, -0.36 7.84 M0.58 8.38 C0.81 4.75, 0.49 1.24, -0.34 0.08 M-0.26 7.61 C0.05 5.52, -0.32 3.53, -0.35 -0.32" stroke="#000000" stroke-width="1" fill="none"></path></g><g stroke-linecap="round" transform="translate(276.99995 223.4834605597964) rotate(0 5 4)"><path d="M1.85 -1.8 L8.26 0.24 L10.17 6.24 L0.67 7.73" stroke="none" stroke-width="0" fill="#000000"></path><path d="M0.08 -0.95 C3.36 0.73, 7.28 0.68, 10.09 0.93 M0.47 -0.35 C3.34 0.21, 6.27 -0.03, 9.89 -0.08 M9.91 -0.54 C9.17 1.13, 9.23 3.06, 10.6 8.78 M10.16 0.15 C10.19 2.53, 10.1 5.42, 10.18 7.67 M9.28 7.67 C8.72 7.53, 6.68 8.74, 0.48 8.97 M9.79 8.05 C7.22 7.96, 4.73 7.59, -0.48 8.07 M-0.7 7.36 C0.66 6.32, 0.53 3.78, -0.59 -0.27 M-0.05 8.05 C0.18 4.93, -0.07 1.53, -0.26 -0.22" stroke="#000000" stroke-width="1" fill="none"></path></g><g stroke-linecap="round" transform="translate(290.99995 223.4834605597964) rotate(0 5 4)"><path d="M-0.56 0.64 L10.89 1.37 L10.26 8.26 L1.98 7.61" stroke="none" stroke-width="0" fill="#000000"></path><path d="M0.23 -0.54 C3.68 -0.23, 7.72 -0.94, 9.08 0.47 M-0.33 -0.44 C2.72 0.47, 6.25 0.17, 10.28 -0.24 M10.01 0.11 C10.77 3.08, 9.37 4.72, 9.85 8.06 M9.81 0.34 C10.27 2.02, 10.36 3.55, 10.23 7.67 M10.08 8.46 C6.76 7.03, 4.98 7.65, -0.79 8.54 M10.28 8.29 C7.89 7.7, 5.57 8.51, -0.44 7.69 M0.03 7.72 C-0.59 5.19, -0.45 4.15, -0.72 -0.7 M0.13 7.95 C0.38 5.77, 0.25 3.33, -0.07 -0.05" stroke="#000000" stroke-width="1" fill="none"></path></g><g stroke-linecap="round" transform="translate(305.99995 223.4834605597964) rotate(0 5 4)"><path d="M-0.39 -0.15 L8.56 0.68 L11.5 8.35 L-0.27 7.35" stroke="none" stroke-width="0" fill="#000000"></path><path d="M0.55 -0.48 C4.16 0.35, 7.86 -0.01, 10.13 0.93 M-0.09 0.04 C3.08 -0.07, 7.28 -0.15, 10.43 0.36 M10.45 -0.66 C9.74 2.86, 10.02 5.63, 10.37 7.47 M9.69 0.22 C9.66 1.31, 10.31 3.48, 10.23 8.02 M9.11 7.39 C7.61 8.2, 5.75 8.13, -0.36 7.28 M9.55 7.57 C7.71 8.13, 4.85 8.26, -0.07 8.48 M-0.13 7.9 C-0.28 5.32, 0.3 2.68, 0.1 0.11 M-0.31 7.64 C-0.08 4.85, 0.39 1.98, -0.05 0.24" stroke="#000000" stroke-width="1" fill="none"></path></g><g stroke-linecap="round" transform="translate(319.99995 222.4834605597964) rotate(0 5 4)"><path d="M0.72 0.31 L11.7 -1.87 L8.84 6.88 L0.53 8.76" stroke="none" stroke-width="0" fill="#000000"></path><path d="M-0.48 0.86 C3.01 0.39, 5.53 -0.33, 10.56 -0.82 M0.04 0.23 C2.25 -0.47, 5.23 -0.16, 9.61 0.27 M10.45 0.47 C9.97 1.11, 9.67 4.1, 9.29 7.51 M10.02 -0.14 C9.72 2.03, 9.79 4.96, 9.64 7.65 M10.34 7.87 C7.84 8.58, 4.41 8.71, -0.17 7.88 M10.34 8.06 C7.34 8.54, 4.46 8.26, -0.38 7.55 M0.72 7.91 C0.47 5.63, -0.07 3, 0.27 0.6 M-0.02 7.65 C-0.25 5.42, -0.03 3.18, 0.1 0.12" stroke="#000000" stroke-width="1" fill="none"></path></g><g stroke-linecap="round" transform="translate(333.99995 222.4834605597964) rotate(0 5 4)"><path d="M-1.22 -1.27 L8.28 1.76 L9.83 6.19 L0.87 7.88" stroke="none" stroke-width="0" fill="#000000"></path><path d="M-0.07 0.08 C2.64 -0.67, 3.39 0.14, 9.66 -0.79 M0.37 0.28 C3.83 0.1, 6.71 -0.09, 10.43 -0.44 M10.22 0.03 C9.71 1.33, 9.47 3.38, 10.74 7.28 M9.65 0.13 C9.96 2.09, 10.28 3.67, 10.32 7.93 M10.45 8.68 C7.25 8.16, 5.23 7.84, 0.42 7.24 M10.46 8.45 C7.83 8.31, 5.68 7.97, -0.36 8.17 M-0.26 7.96 C-0.72 4.48, -0.09 1.92, 0.52 0.2 M0.34 7.63 C-0.26 5.14, 0.08 2.88, 0.18 -0.09" stroke="#000000" stroke-width="1" fill="none"></path></g><g stroke-linecap="round" transform="translate(347.99995 223.4834605597964) rotate(0 5 4)"><path d="M-0.11 1.69 L8.44 -0.24 L9.65 7.57 L0.25 6.76" stroke="none" stroke-width="0" fill="#000000"></path><path d="M0.56 0.58 C2.17 -0.81, 3.92 0.79, 9.11 -0.61 M0.02 -0.18 C2.51 -0.35, 5.46 0.43, 9.55 -0.43 M10.27 -0.11 C10.77 3.03, 10.53 5.63, 9.87 7.9 M10.27 0.05 C10.08 2.57, 9.95 4.52, 9.69 7.64 M10.9 7.88 C7.84 7.9, 4.4 7.37, 0.34 8.75 M9.97 7.56 C6.5 7.92, 3.6 8.29, 0.12 8.15 M-0.75 7.54 C-0.46 5.53, 0.29 2.99, -0.18 -0.49 M-0.03 7.64 C0.24 6.08, -0.2 4.05, -0.16 0.23" stroke="#000000" stroke-width="1" fill="none"></path></g><g stroke-linecap="round" transform="translate(362.99995 223.4834605597964) rotate(0 5 4)"><path d="M-0.12 -1.18 L8.77 0.21 L10.95 7.88 L-0.97 8.44" stroke="none" stroke-width="0" fill="#000000"></path><path d="M-0.3 0.13 C2.85 0.63, 5.39 0.27, 10.76 -0.07 M-0.05 0.05 C4.32 -0.21, 7.95 -0.04, 10.37 -0.29 M9.26 0.6 C9.9 2.59, 10.18 5.37, 9.99 7.93 M10.14 0.21 C9.57 3.01, 10.32 5.29, 10.38 8.28 M9.05 7.63 C7.81 8.41, 4.52 8.5, -0.42 8.12 M10.24 8.21 C6.28 8.5, 2.87 7.85, 0.13 7.52 M0.29 8.28 C0.48 6.45, -0.41 3.81, 0.36 0.35 M0.1 8.34 C-0.05 6.14, -0.16 4.37, 0.28 0.34" stroke="#000000" stroke-width="1" fill="none"></path></g><g stroke-linecap="round" transform="translate(156.99995 262.9834605597964) rotate(0 110 8.5)"><path d="M-0.32 -0.41 L218.46 1.44 L218.67 16.74 L-1.25 16.59" stroke="none" stroke-width="0" fill="#ced4da"></path><path d="M-1.24 -1.7 C65.81 0.95, 132.07 0.5, 219.29 -0.04 M0.22 -0.15 C84.27 -0.14, 170.04 -0.07, 220.38 -0.76 M221.65 -0.17 C221.19 6.33, 220.99 10.93, 221.31 18.16 M219.84 0.16 C219.51 6.6, 219.98 13.29, 219.78 16.55 M219.39 18.51 C137.01 17.22, 53.76 17.63, -1.06 18.1 M220.81 17.73 C141.76 14.56, 65.34 14.69, -0.38 16.68 M-1.68 17.04 C-0.74 13.52, 0.91 11.71, 1.12 0.59 M0.6 16.61 C0.1 13.43, -0.78 8.65, 0.17 -0.04" stroke="#000000" stroke-width="1" fill="none"></path></g><g stroke-linecap="round" transform="translate(160.99995 267.9834605597964) rotate(0 5 4)"><path d="M-0.41 -1.54 L11.44 -1.33 L9.74 6.75 L-0.41 8.51" stroke="none" stroke-width="0" fill="#000000"></path><path d="M-0.98 -0.11 C4.33 0.11, 7.8 -0.34, 9.98 0.87 M-0.09 -0.48 C3.48 -0.11, 7.35 0.19, 9.56 0.19 M9.92 0.59 C10.29 2.56, 9.75 4.74, 10.55 8.65 M10.08 -0.17 C10.05 1.86, 10.15 3.53, 9.79 8.32 M10.87 8.48 C5.88 8.77, 2.15 7.35, 0.63 8.52 M10.42 7.58 C6.48 8.3, 3.49 7.87, -0.19 7.52 M0.02 7.62 C-0.03 6.26, 0.74 4.25, 0.28 -0.56 M-0.18 8.1 C0.13 4.77, -0.28 2.25, -0.02 -0.06" stroke="#000000" stroke-width="1" fill="none"></path></g><g stroke-linecap="round" transform="translate(175.99995 267.9834605597964) rotate(0 5 4)"><path d="M-1.54 1.44 L8.67 -0.26 L8.75 7.59 L0.51 7.08" stroke="none" stroke-width="0" fill="#000000"></path><path d="M-0.11 0.61 C3.09 0.45, 5.7 0.07, 10.87 0.82 M-0.48 -0.34 C2.68 -0.28, 5.75 -0.42, 10.19 -0.21 M10.59 0.28 C10.58 2.3, 10.69 5.67, 10.65 7.42 M9.83 0.05 C10.03 2.54, 9.88 4.55, 10.32 8.39 M10.48 7.86 C7.56 8.18, 2.9 8.72, 0.52 8.06 M9.58 7.55 C8.08 7.71, 5.52 7.9, -0.48 7.84 M-0.38 7.99 C0.48 6.16, 0.61 3.09, -0.56 0.51 M0.1 8.16 C-0.37 5.06, 0.02 2.61, -0.06 -0.08" stroke="#000000" stroke-width="1" fill="none"></path></g><g stroke-linecap="round" transform="translate(190.99995 267.9834605597964) rotate(0 5 4)"><path d="M1.44 -1.33 L9.74 -1.25 L9.59 8.51 L-0.92 9.92" stroke="none" stroke-width="0" fill="#000000"></path><path d="M0.61 0.04 C2.63 -0.4, 4.54 0.88, 10.82 -0.23 M-0.34 -0.09 C2.95 0.31, 6.06 0.28, 9.79 0.1 M10.28 0.5 C9.73 3.79, 10.54 7, 9.42 7.98 M10.05 0.05 C10.17 2.14, 9.8 4.82, 10.39 8.1 M9.86 8.8 C7.45 7.43, 5.34 8.57, 0.06 7.13 M9.55 8.21 C5.69 7.7, 1.94 7.43, -0.16 8.12 M-0.01 8.4 C0.76 6.92, 0.28 4.22, 0.51 0.29 M0.16 7.69 C-0.22 5.12, 0.02 2.01, -0.08 -0.31" stroke="#000000" stroke-width="1" fill="none"></path></g><g stroke-linecap="round" transform="translate(204.99995 267.9834605597964) rotate(0 5 4)"><path d="M-1.33 -0.26 L8.75 -0.41 L10.51 7.08 L1.92 9.49" stroke="none" stroke-width="0" fill="#000000"></path><path d="M0.04 0.35 C1.61 -0.09, 4.9 0.76, 9.77 0.25 M-0.09 -0.3 C3.04 -0.37, 5.83 -0.15, 10.1 0.49 M10.5 -0.26 C10.68 2.87, 10.71 4.06, 9.98 7.85 M10.05 0.15 C9.86 2.34, 10.29 5.49, 10.1 7.86 M10.8 8.1 C5.51 8.62, 2.78 8.05, -0.87 8.93 M10.21 7.62 C5.94 7.72, 1.84 7.75, 0.12 7.51 M0.4 8.76 C0.56 5.86, -0.53 3.67, 0.29 0.56 M-0.31 7.74 C0.06 5.95, -0.08 3.84, -0.31 0.29" stroke="#000000" stroke-width="1" fill="none"></path></g><g stroke-linecap="round" transform="translate(218.99995 267.9834605597964) rotate(0 5 4)"><path d="M-0.26 -1.25 L9.59 0.51 L9.08 9.92 L1.49 7.91" stroke="none" stroke-width="0" fill="#000000"></path><path d="M0.35 -0.41 C2.87 0.86, 6.6 -0.24, 10.25 -0.18 M-0.3 0.22 C1.61 0.21, 3.88 0.12, 10.49 -0.05 M9.74 0.62 C10.58 3.64, 9.44 5.97, 9.85 8.15 M10.15 -0.11 C9.8 2.38, 10.4 4.21, 9.86 8.35 M10.1 7.39 C7.15 8.6, 3.11 7.21, 0.93 8.84 M9.62 7.78 C7.65 7.56, 5.52 8.16, -0.49 8.01 M0.76 8.53 C0.28 5.41, 0.51 4.24, 0.56 -0.36 M-0.26 8.08 C-0.05 5.34, -0.11 2.5, 0.29 -0.27" stroke="#000000" stroke-width="1" fill="none"></path></g><g stroke-linecap="round" transform="translate(232.99995 267.9834605597964) rotate(0 5 4)"><path d="M-1.25 -0.41 L10.51 -0.92 L11.92 9.49 L-0.09 9.46" stroke="none" stroke-width="0" fill="#000000"></path><path d="M-0.41 -0.02 C4.48 0.79, 6.98 0.21, 9.82 -0.96 M0.22 -0.44 C2.51 -0.15, 4.75 0.54, 9.95 0.37 M10.62 0.55 C10.7 2.1, 10.03 5.2, 10.15 7.65 M9.89 -0.21 C10.33 2.9, 10.11 4.88, 10.35 8.19 M9.39 8.63 C7.67 8.07, 3.42 8.94, 0.84 7.16 M9.78 7.81 C7.42 7.76, 5.93 7.43, 0.01 7.77 M0.53 8.28 C-0.6 6.13, 0.25 3.79, -0.36 0.2 M0.08 7.98 C0 5.21, -0.24 2.86, -0.27 -0.05" stroke="#000000" stroke-width="1" fill="none"></path></g><g stroke-linecap="round" transform="translate(246.99995 267.9834605597964) rotate(0 5 4)"><path d="M-0.41 0.51 L9.08 1.92 L11.49 7.91 L1.46 7.21" stroke="none" stroke-width="0" fill="#000000"></path><path d="M-0.02 0.87 C3.86 -0.19, 6.33 -0.14, 9.04 -0.67 M-0.44 0.19 C2.61 0.06, 6.13 -0.09, 10.37 0.17 M10.55 0.65 C9.39 2.89, 9.82 5.96, 9.65 8.11 M9.79 0.32 C10.42 2.59, 9.89 5.34, 10.19 7.94 M10.63 8.52 C6.26 7.07, 3.33 8.78, -0.84 7.1 M9.81 7.52 C6.42 8.08, 2.67 7.97, -0.23 7.99 M0.28 7.44 C0.44 5.49, 0.49 2.03, 0.2 0.31 M-0.02 7.94 C-0.03 5.92, 0.34 4.19, -0.05 -0.25" stroke="#000000" stroke-width="1" fill="none"></path></g><g stroke-linecap="round" transform="translate(260.99995 267.9834605597964) rotate(0 5 4)"><path d="M0.51 -0.92 L11.92 1.49 L9.91 9.46 L-0.79 9.19" stroke="none" stroke-width="0" fill="#000000"></path><path d="M0.87 0.82 C3.12 0.25, 6.52 -0.95, 9.33 -0.18 M0.19 -0.21 C2.5 0.57, 4.76 0.46, 10.17 0.31 M10.65 -0.58 C10.05 1.99, 10.21 3.93, 10.11 8.1 M10.32 0.39 C10.08 2.57, 10.33 5.61, 9.94 8.32 M10.52 8.06 C6.03 9, 4.65 7.22, -0.9 8.42 M9.52 7.84 C7.88 7.47, 5.53 7.73, -0.01 8.25 M-0.56 8.51 C0.24 5.4, -0.42 1.88, 0.31 -0.63 M-0.06 7.92 C-0.32 6.4, -0.28 4.17, -0.25 -0.08" stroke="#000000" stroke-width="1" fill="none"></path></g><g stroke-linecap="round" transform="translate(275.99995 267.9834605597964) rotate(0 5 4)"><path d="M-0.92 1.92 L11.49 -0.09 L11.46 7.21 L1.19 7.15" stroke="none" stroke-width="0" fill="#000000"></path><path d="M0.82 -0.23 C2.84 -0.27, 4.22 -0.76, 9.82 -0.6 M-0.21 0.1 C3.92 -0.09, 7.24 0.14, 10.31 -0.16 M9.42 -0.02 C9.9 3.17, 9.71 6.14, 10.1 8.31 M10.39 0.1 C9.82 2.54, 10.15 4.32, 10.32 8.04 M10.06 7.13 C8.55 8.89, 4.39 7.15, 0.42 7.24 M9.84 8.12 C6.94 7.92, 4.64 7.9, 0.25 8.47 M0.51 8.29 C0.54 4.71, 0.17 2.46, -0.63 -0.51 M-0.08 7.69 C0.29 5.18, -0.05 2.63, -0.08 0.1" stroke="#000000" stroke-width="1" fill="none"></path></g><g stroke-linecap="round" transform="translate(289.99995 267.9834605597964) rotate(0 5 4)"><path d="M1.92 1.49 L9.91 1.46 L9.21 9.19 L-0.85 8.62" stroke="none" stroke-width="0" fill="#000000"></path><path d="M-0.23 0.25 C2.8 -1.04, 5.28 -0.26, 9.4 0.43 M0.1 0.49 C2.07 0.41, 4.42 0.36, 9.84 0.39 M9.98 -0.15 C10.22 2.6, 10.17 5.99, 10.31 7.79 M10.1 -0.14 C10.41 2.17, 10.01 4.27, 10.04 7.75 M9.13 8.93 C7.21 7.17, 1.83 8.42, -0.76 7.56 M10.12 7.51 C7.39 7.73, 4.74 8.22, 0.47 8.33 M0.29 8.56 C-0.31 5.52, 0.37 2.01, -0.51 0.16 M-0.31 8.29 C-0.25 5.58, -0.24 3.19, 0.1 -0.18" stroke="#000000" stroke-width="1" fill="none"></path></g><g stroke-linecap="round" transform="translate(304.99995 267.9834605597964) rotate(0 5 4)"><path d="M1.49 -0.09 L11.46 -0.79 L11.19 7.15 L0.62 6.47" stroke="none" stroke-width="0" fill="#000000"></path><path d="M0.25 -0.18 C2.91 -0.65, 7.56 -0.57, 10.43 -0.88 M0.49 -0.05 C3.75 0.15, 7.07 -0.18, 10.39 0.34 M9.85 0.15 C9.6 3.16, 10.04 6.41, 9.79 7.57 M9.86 0.35 C10.27 2.99, 10.4 6.13, 9.75 8.25 M10.93 8.84 C5.64 7.01, 3.37 7.16, -0.44 7.63 M9.51 8.01 C7.74 8.02, 6.19 8.5, 0.33 8.17 M0.56 7.64 C0.15 6.48, -0.68 3.82, 0.16 -0.04 M0.29 7.73 C-0.04 5.48, -0.07 3.56, -0.18 0.38" stroke="#000000" stroke-width="1" fill="none"></path></g><g stroke-linecap="round" transform="translate(318.99995 266.9834605597964) rotate(0 5 4)"><path d="M-0.09 1.46 L9.21 1.19 L9.15 8.62 L-1.53 9.64" stroke="none" stroke-width="0" fill="#000000"></path><path d="M-0.18 -0.96 C3.15 -0.2, 7.05 0.41, 9.12 0.38 M-0.05 0.37 C2.75 0.22, 4.99 0.29, 10.34 0.41 M10.15 -0.35 C10.11 1.91, 10.31 3.42, 9.57 8.65 M10.35 0.19 C9.96 3.5, 10.06 6.11, 10.25 8.21 M10.84 7.16 C6.03 8.51, 3.12 7.65, -0.37 7.03 M10.01 7.77 C7.32 8.15, 5.12 8.23, 0.17 7.65 M-0.36 8.2 C0.28 4.46, -0.54 2.33, -0.04 -0.13 M-0.27 7.95 C-0.19 5.68, 0.16 3.34, 0.38 0.3" stroke="#000000" stroke-width="1" fill="none"></path></g><g stroke-linecap="round" transform="translate(332.99995 266.9834605597964) rotate(0 5 4)"><path d="M1.46 -0.79 L11.19 -0.85 L10.62 6.47 L1.64 6.13" stroke="none" stroke-width="0" fill="#000000"></path><path d="M-0.96 -0.67 C2.59 -0.58, 5.96 -0.86, 10.38 -0.43 M0.37 0.17 C3.51 -0.15, 6.78 0.35, 10.41 -0.36 M9.65 0.11 C10.08 2.69, 9.77 4.34, 10.65 8.78 M10.19 -0.06 C10.29 2.63, 9.73 5.44, 10.21 8.03 M9.16 7.1 C8.29 7.33, 5.3 7.71, -0.97 7.68 M9.77 7.99 C7 8.48, 3.84 8.18, -0.35 8.32 M0.2 8.31 C-0.69 4.8, 0.1 2.59, -0.13 -0.16 M-0.05 7.75 C-0.14 6.32, -0.24 4.81, 0.3 -0.02" stroke="#000000" stroke-width="1" fill="none"></path></g><g stroke-linecap="round" transform="translate(346.99995 267.9834605597964) rotate(0 5 4)"><path d="M-0.79 1.19 L9.15 0.62 L8.47 9.64 L-1.87 6.22" stroke="none" stroke-width="0" fill="#000000"></path><path d="M-0.67 -0.18 C2.65 0.53, 5.62 0.47, 9.57 0.2 M0.17 0.31 C3.81 0.31, 8.28 0.33, 9.64 -0.01 M10.11 0.1 C10.32 2.04, 9.59 5.14, 10.78 8.2 M9.94 0.32 C10.11 1.87, 10.32 4.44, 10.03 7.65 M9.1 8.42 C5.31 7.48, 1.76 6.95, -0.32 8.25 M9.99 8.25 C8.46 8.28, 6.15 7.6, 0.32 8.18 M0.31 7.37 C-0.48 5.19, 0 1.94, -0.16 -0.62 M-0.25 7.92 C0.16 4.84, 0.44 2.35, -0.02 0.29" stroke="#000000" stroke-width="1" fill="none"></path></g><g stroke-linecap="round" transform="translate(361.99995 267.9834605597964) rotate(0 5 4)"><path d="M1.19 -0.85 L10.62 -1.53 L11.64 6.13 L-1.78 6.14" stroke="none" stroke-width="0" fill="#000000"></path><path d="M-0.18 -0.6 C3.26 -0.81, 6.02 -0.36, 10.2 0.97 M0.31 -0.16 C3.29 0.31, 6.21 -0.4, 9.99 -0.1 M10.1 0.31 C9.76 2.13, 10.61 5.88, 10.2 7.72 M10.32 0.04 C9.79 3.35, 10.25 6.22, 9.65 8.37 M10.42 7.24 C5.72 7.53, 1.35 7.58, 0.25 7.01 M10.25 8.47 C7.3 8.17, 3.6 8.32, 0.18 8.35 M-0.63 7.49 C0.14 5.93, -0.15 3.76, -0.62 0.58 M-0.08 8.1 C-0.17 6.52, 0.31 4.25, 0.29 -0.16" stroke="#000000" stroke-width="1" fill="none"></path></g><g stroke-linecap="round" transform="translate(424.99995 13.483460559796413) rotate(0 8.5 8.5)"><path d="M0.55 -1.62 L17.82 -1.24 L17 15.44 L-0.88 18.42" stroke="none" stroke-width="0" fill="#ced4da"></path><path d="M0.56 1.34 C7.88 -1.39, 14.32 -1, 17.96 -0.86 M0.65 -0.14 C3.89 0.87, 9.04 0.77, 16.27 0.44 M16.73 1.6 C18.07 6.29, 17.69 9.98, 18.32 17.38 M16.87 0.25 C17.14 6.28, 16.94 10.98, 16.75 16.47 M18.26 17.52 C11.39 16.32, 6.06 16.86, 0.51 16.3 M16.35 16.92 C13.24 17.4, 8.7 17.45, -0.6 16.49 M1.41 18.05 C0.35 13.17, -0.8 9.25, -0.04 0.44 M-0.73 16.61 C-0.5 11.29, -0.27 4.9, -0.14 -0.38" stroke="#000000" stroke-width="1" fill="none"></path></g><g stroke-linecap="round" transform="translate(428.99995 16.483460559796413) rotate(0 4.5 4.5)"><path d="M3.98 -0.28 C4.83 -0.46, 6.6 0.24, 7.25 0.76 C7.9 1.29, 7.59 1.88, 7.91 2.88 C8.22 3.89, 9.54 5.67, 9.13 6.78 C8.72 7.9, 6.34 9.39, 5.46 9.58 C4.57 9.77, 4.53 8.22, 3.81 7.92 C3.08 7.63, 1.63 8.62, 1.11 7.82 C0.59 7.02, 0.56 4.34, 0.68 3.14 C0.8 1.93, 1.08 1.2, 1.83 0.59 C2.58 -0.02, 4.68 -0.39, 5.16 -0.5 C5.65 -0.62, 4.88 -0.41, 4.75 -0.12 M3.64 1.33 C4.56 1.08, 4.86 1.14, 5.8 1.59 C6.74 2.04, 8.95 3.26, 9.27 4.02 C9.59 4.79, 7.99 5.28, 7.74 6.18 C7.5 7.09, 8.43 8.93, 7.8 9.46 C7.16 10, 5.28 9.59, 3.94 9.39 C2.61 9.18, 0.37 9.01, -0.23 8.23 C-0.83 7.45, 0.26 5.63, 0.36 4.71 C0.45 3.8, -0.24 3.46, 0.35 2.76 C0.94 2.05, 3.19 0.76, 3.9 0.46 C4.6 0.15, 4.52 1.12, 4.58 0.93" stroke="none" stroke-width="0" fill="#fa5252"></path><path d="M3.3 -0.22 C4.15 -0.61, 5.65 0.41, 6.43 0.8 C7.21 1.18, 7.46 1.43, 7.97 2.07 C8.49 2.71, 9.64 3.6, 9.54 4.64 C9.43 5.68, 8.02 7.64, 7.35 8.33 C6.67 9.03, 6.43 8.93, 5.48 8.8 C4.53 8.67, 2.61 8.25, 1.64 7.54 C0.66 6.83, -0.23 5.54, -0.37 4.54 C-0.5 3.53, 0.23 2.34, 0.83 1.51 C1.42 0.68, 2.77 -0.29, 3.21 -0.44 C3.66 -0.59, 3.56 0.43, 3.51 0.61 M3.68 1.66 C4.52 1.33, 5.66 1.46, 6.42 1.34 C7.18 1.21, 7.85 0.43, 8.25 0.92 C8.65 1.42, 9.12 2.96, 8.83 4.29 C8.54 5.63, 7.38 8.27, 6.51 8.94 C5.64 9.61, 4.59 8.55, 3.63 8.31 C2.67 8.07, 1.16 8.19, 0.73 7.5 C0.31 6.8, 0.94 4.84, 1.1 4.14 C1.26 3.45, 1.21 3.92, 1.68 3.35 C2.14 2.79, 3.78 1.3, 3.88 0.76 C3.97 0.21, 2.38 0.17, 2.22 0.1" stroke="#000000" stroke-width="1" fill="none"></path></g><g stroke-linecap="round" transform="translate(91.99995000000001 13.483460559796413) rotate(0 8.5 8.5)"><path d="M0.94 -1.27 L16.91 -0.92 L16.92 18.96 L1.88 16.83" stroke="none" stroke-width="0" fill="#ced4da"></path><path d="M1.01 -1.49 C7.48 1.67, 14.06 -0.08, 18.56 0.2 M0.5 0.73 C4.68 0.76, 10.27 0, 17.65 -0.54 M15.48 -0.39 C18.46 5.22, 18.69 10.14, 15.87 16.48 M16.39 -0.66 C16.06 5.04, 17.54 8.54, 17.11 16.67 M16.8 16.14 C13.26 16.45, 8.84 18.15, -0.89 15.32 M16.7 16.56 C12.81 17.21, 8 17.24, -0.46 17.79 M-0.96 18.44 C0.46 11.18, -1.54 5.1, -1.37 0.42 M0.47 16.88 C-0.28 11.25, -0.17 5.26, 0 -0.05" stroke="#000000" stroke-width="1" fill="none"></path></g><g stroke-linecap="round" transform="translate(95.99995000000001 16.483460559796413) rotate(0 4.5 4.5)"><path d="M3.73 0.15 C4.54 0.01, 5.65 0.5, 6.36 0.9 C7.06 1.3, 7.61 1.78, 7.95 2.57 C8.29 3.36, 8.37 4.54, 8.38 5.64 C8.4 6.73, 8.78 8.63, 8.05 9.14 C7.32 9.65, 5.23 8.96, 4.01 8.7 C2.78 8.43, 1.46 8.32, 0.68 7.54 C-0.1 6.76, -0.65 4.99, -0.69 4.04 C-0.73 3.09, -0.4 2.43, 0.45 1.85 C1.29 1.27, 3.56 0.91, 4.39 0.56 C5.23 0.21, 5.63 -0.21, 5.46 -0.25 M6.23 0.07 C7.26 0.36, 9.03 2.41, 9.3 3.45 C9.58 4.49, 8.23 5.65, 7.89 6.3 C7.55 6.96, 8 7, 7.27 7.39 C6.55 7.77, 4.45 8.72, 3.54 8.61 C2.64 8.49, 2.46 7.46, 1.83 6.71 C1.2 5.97, 0.16 4.78, -0.23 4.13 C-0.62 3.47, -1.12 3.61, -0.51 2.79 C0.1 1.97, 2.32 -0.15, 3.42 -0.79 C4.52 -1.43, 5.57 -1.32, 6.09 -1.07 C6.61 -0.81, 6.54 0.66, 6.54 0.74" stroke="none" stroke-width="0" fill="#fa5252"></path><path d="M4.91 1 C5.57 0.69, 5.72 0.2, 6.32 0.44 C6.92 0.69, 8.19 1.61, 8.49 2.46 C8.78 3.32, 8.54 4.72, 8.09 5.57 C7.63 6.42, 6.41 6.89, 5.73 7.57 C5.05 8.26, 4.95 9.71, 4.03 9.66 C3.12 9.62, 0.97 8.3, 0.24 7.31 C-0.5 6.32, -0.68 4.63, -0.38 3.73 C-0.08 2.84, 1.31 2.65, 2.05 1.95 C2.79 1.24, 3.62 -0.12, 4.06 -0.49 C4.5 -0.87, 4.61 -0.55, 4.67 -0.29 M2.67 0.07 C3.7 -0.31, 4.71 -0.84, 5.88 -0.35 C7.05 0.13, 9.02 1.91, 9.7 2.99 C10.39 4.07, 10.56 5.02, 9.99 6.12 C9.41 7.22, 7.03 8.89, 6.27 9.59 C5.51 10.29, 6.07 10.79, 5.43 10.33 C4.79 9.87, 3.13 7.65, 2.44 6.83 C1.75 6.01, 1.44 6.45, 1.29 5.42 C1.13 4.4, 0.98 1.77, 1.51 0.69 C2.05 -0.39, 4.13 -1.12, 4.5 -1.06 C4.87 -1, 4.14 0.69, 3.74 1.06" stroke="#000000" stroke-width="1" fill="none"></path></g><g stroke-linecap="round" transform="translate(85.99995000000001 131.4834605597964) rotate(0 9 12)"><path d="M-1.29 1.03 L16.38 1.48 L19.47 25.49 L0.05 23.37" stroke="none" stroke-width="0" fill="#ced4da"></path><path d="M-0.84 0.78 C6.26 -0.78, 8.99 1.25, 19.7 1.14 M0.73 -0.48 C6.22 0.72, 12.29 0.33, 17.32 0.39 M19.59 -0.43 C19.77 7.19, 16.37 10.25, 19.54 23.28 M17.92 0.15 C17.38 5.86, 17.34 10.07, 18.82 23.86 M18.17 22.54 C10.34 24.67, 6.13 25.24, 0.38 23.84 M17.58 24.17 C12.83 23.76, 7.27 23.28, 0.23 24.71 M-1.86 24.57 C-1.38 16.97, 0.66 13, 1.67 0.89 M0.12 24.57 C0.62 18.15, -0.05 9.53, -0.89 0.07" stroke="#000000" stroke-width="1" fill="none"></path></g><g stroke-linecap="round" transform="translate(429.99995 129.4834605597964) rotate(0 8.5 12)"><path d="M-1.75 1.88 L17.94 0.95 L17.51 25.82 L1.97 23.42" stroke="none" stroke-width="0" fill="#ced4da"></path><path d="M-1.21 -1.41 C4.07 -0.09, 8.66 0.78, 17.69 -1.21 M0.03 -0.56 C4.38 -0.29, 8.96 -0.23, 16.71 0.23 M16.09 0.18 C16.03 7.59, 15.99 17.46, 16.08 23.1 M16.21 -0.03 C17.14 6.61, 17.48 12.72, 17.86 23.97 M17.98 25.1 C10.21 25.19, 4.99 22.72, 1.32 23.57 M16.61 24.05 C12.07 24.41, 6.43 24.52, -0.22 23.88 M0.98 23.86 C-0.11 15.21, -1.08 6.81, -1.75 0.99 M-0.73 23.59 C0.81 15.68, 0.82 9.47, -0.18 -0.1" stroke="#000000" stroke-width="1" fill="none"></path></g><g stroke-linecap="round" transform="translate(100.99995000000001 195.4834605597964) rotate(0 5 4)"><path d="M0.32 -1.97 L10.19 -1.22 L9.68 6.28 L1.45 7.54" stroke="none" stroke-width="0" fill="#82c91e"></path><path d="M0.43 -0.53 C1.51 -0.52, 3.81 0.73, 10.47 -0.18 M0.07 -0.1 C2.49 0.27, 5.05 -0.28, 10.07 0.41 M10.37 0.06 C10.65 2.68, 10.26 6.79, 10.32 7.59 M9.83 0.07 C9.94 2.42, 10.24 4.82, 10.25 7.62 M10.34 7.12 C8.03 8.14, 5.03 8.07, -0.3 8.98 M9.64 8.44 C7.34 7.49, 4.97 7.74, 0.1 8.09 M-0.12 7.39 C-0.17 5.56, -0.45 3.78, -0.53 -0.76 M0 7.8 C0.11 5.84, -0.15 3.3, -0.25 0.37" stroke="#000000" stroke-width="1" fill="none"></path></g><g stroke-linecap="round" transform="translate(115.99995000000001 195.4834605597964) rotate(0 5 4)"><path d="M0.19 -1.22 L9.68 -1.72 L11.45 7.54 L-0.38 7.21" stroke="none" stroke-width="0" fill="#82c91e"></path><path d="M-0.81 -0.53 C2.02 0.77, 6.15 -0.13, 9.5 0.19 M-0.01 0.22 C2.54 -0.32, 5.03 0.43, 10.45 -0.46 M10.73 -0.43 C10.37 2.68, 10.36 3.81, 10.08 8.24 M9.92 -0.05 C10.19 2.25, 10.22 4.39, 9.66 8.32 M10.19 8.18 C6.7 8.02, 4.41 8.89, -0.54 8.74 M9.8 7.54 C7.37 7.88, 5.07 8.17, -0.22 8.19 M-0.14 7.61 C-0.4 5.46, -0.52 2.41, -0.23 -0.11 M0.1 8.01 C-0.16 5.17, -0.25 3.45, 0.06 -0.39" stroke="#000000" stroke-width="1" fill="none"></path></g><g stroke-linecap="round" transform="translate(130.99995 195.4834605597964) rotate(0 5 4)"><path d="M-0.32 -1.72 L11.45 -0.46 L9.62 7.21 L0.02 6.44" stroke="none" stroke-width="0" fill="#82c91e"></path><path d="M-0.82 0.72 C2.94 -0.13, 4.44 0.24, 9.48 0.14 M0.06 -0.34 C2.87 0.37, 6.06 -0.5, 9.82 0.23 M10.33 0.56 C10.39 2.05, 10.15 5.15, 9.99 7.66 M10.22 -0.14 C10.24 2.16, 9.65 5.41, 9.86 8.14 M9.35 8.11 C7.58 9, 5.22 8.76, -0.49 7.29 M9.88 7.79 C6.22 7.99, 2.03 8.09, 0.01 7.93 M-0.42 7.87 C-0.52 5.45, -0.22 4.31, 0.06 -0.01 M-0.16 7.63 C-0.27 6.38, 0.04 3.62, 0.04 -0.24" stroke="#000000" stroke-width="1" fill="none"></path></g><g stroke-linecap="round" transform="translate(144.99995 195.4834605597964) rotate(0 5 4)"><path d="M1.45 -0.46 L9.62 -0.79 L10.02 6.44 L-1.66 7.67" stroke="none" stroke-width="0" fill="#82c91e"></path><path d="M0.47 -0.18 C1.97 0.12, 4.42 0.07, 9.8 -0.02 M0.07 0.41 C3.88 -0.39, 6.69 0.3, 10.04 0.45 M10.32 -0.41 C10.11 2.2, 10.02 3.59, 10.15 7.84 M10.25 -0.38 C9.71 2.61, 9.9 4.72, 9.65 8.08 M9.7 8.98 C6.28 8.75, 3.16 7.3, 0.87 7.59 M10.1 8.09 C7.7 8.14, 5.85 7.88, -0.38 7.92 M-0.53 7.24 C-0.19 5.88, 0.1 3.97, -0.41 0.19 M-0.25 8.37 C0.09 5.2, 0.07 2.94, -0.06 -0.34" stroke="#000000" stroke-width="1" fill="none"></path></g><g stroke-linecap="round" transform="translate(371.99995 196.4834605597964) rotate(0 5 4)"><path d="M0.64 0.24 L9.53 1.65 L10.1 8.13 L1.99 7.95" stroke="none" stroke-width="0" fill="#82c91e"></path><path d="M0.02 -0.98 C3.34 0.76, 4.1 -0.52, 10.15 0.59 M0.42 -0.1 C3.98 -0.24, 7.44 0.22, 10.05 -0.05 M10.73 -0.5 C9.47 1.76, 10.04 3.9, 10.08 8.3 M10.37 0.13 C9.63 2.02, 9.57 4.74, 9.84 7.64 M10.21 8.15 C6.8 8.51, 3.15 8.22, 0.19 8.47 M9.76 8.32 C6.48 7.65, 4.01 7.79, -0.41 8.48 M-0.43 8.65 C-0.33 6.28, 0.22 4.06, 0.31 -0.25 M-0.3 7.86 C-0.19 5.65, -0.15 2.81, -0.2 0.3" stroke="#000000" stroke-width="1" fill="none"></path></g><g stroke-linecap="round" transform="translate(386.99995 196.4834605597964) rotate(0 5 4)"><path d="M0.24 -0.47 L11.65 0.1 L10.13 9.99 L-0.05 8.29" stroke="none" stroke-width="0" fill="#82c91e"></path><path d="M-0.98 1 C3.8 -0.58, 5.59 0.15, 10.59 0.96 M-0.1 0.02 C3.12 -0.56, 6.95 -0.03, 9.95 -0.14 M9.5 -0.5 C9.63 2.15, 9.6 4.24, 10.3 7.87 M10.13 -0.32 C9.71 1.43, 10.17 3.44, 9.64 8.08 M10.15 8 C8.31 7.55, 5.79 8.21, 0.47 8.19 M10.32 7.67 C6.41 8.34, 3.31 7.54, 0.48 7.6 M0.65 7.6 C-0.02 6.46, -0.48 4.94, -0.25 0.21 M-0.14 7.82 C0.28 5.36, 0.06 2.8, 0.3 0.13" stroke="#000000" stroke-width="1" fill="none"></path></g><g stroke-linecap="round" transform="translate(401.99995 196.4834605597964) rotate(0 5 4)"><path d="M-0.47 1.65 L10.1 0.13 L11.99 7.95 L0.29 6.12" stroke="none" stroke-width="0" fill="#82c91e"></path><path d="M1 0.72 C2.02 -0.46, 5.36 0.69, 10.96 0.37 M0.02 -0.24 C2.44 0.24, 5.9 -0.03, 9.86 -0.2 M9.5 -0.43 C10.14 2.52, 10.16 6.26, 9.87 7.4 M9.68 -0.25 C9.7 2.17, 9.91 3.57, 10.08 7.69 M10 8.54 C6.89 8.27, 4.92 8.49, 0.19 8.24 M9.67 7.65 C7.41 7.86, 3.65 8.54, -0.4 7.55 M-0.4 8.05 C0.19 4.47, 0.35 1.51, 0.21 0.1 M-0.18 8.26 C-0.07 5.88, -0.14 3.99, 0.13 0.05" stroke="#000000" stroke-width="1" fill="none"></path></g><g stroke-linecap="round" transform="translate(415.99995 196.4834605597964) rotate(0 5 4)"><path d="M1.65 0.1 L10.13 1.99 L9.95 8.29 L-1.88 7.67" stroke="none" stroke-width="0" fill="#82c91e"></path><path d="M0.72 -0.58 C2.45 0.05, 6.62 0.86, 10.37 -0.08 M-0.24 -0.48 C4.05 0.05, 7.63 -0.14, 9.8 0.36 M9.57 0.07 C9.49 3.21, 10.25 6.12, 9.4 7.56 M9.75 -0.37 C10.24 2.97, 9.67 6.35, 9.69 7.85 M10.54 7.53 C7.04 8.19, 4.04 8.19, 0.24 7.97 M9.65 8.38 C7.27 7.52, 5.42 7.54, -0.45 8.45 M0.05 8.15 C-0.47 6.34, -0.32 4.28, 0.1 -0.24 M0.26 7.86 C0.07 6.01, 0.33 4.54, 0.05 -0.09" stroke="#000000" stroke-width="1" fill="none"></path></g><g stroke-linecap="round"><g transform="translate(82.20998492622437 142.28152024711312) rotate(1.389418040971146 -32.459249997056986 54.76538979555346)"><path d="M0 0 C-9.2 1.92, -44.41 -6.82, -55.23 11.5 C-66.05 29.83, -63.3 93.53, -64.92 109.93 M0 0 C-9.2 1.92, -44.41 -6.82, -55.23 11.5 C-66.05 29.83, -63.3 93.53, -64.92 109.93" stroke="#e67700" stroke-width="4" fill="none"></path></g></g><g stroke-linecap="round"><g transform="translate(450.52164501395794 140.30196556825547) rotate(358.6105819590288 32.88467650394301 54.76538979555346)"><path d="M0 0 C9.3 1.92, 44.87 -6.82, 55.83 11.5 C66.79 29.83, 64.11 93.53, 65.77 109.93 M0 0 C9.3 1.92, 44.87 -6.82, 55.83 11.5 C66.79 29.83, 64.11 93.53, 65.77 109.93" stroke="#e67700" stroke-width="4" fill="none"></path></g></g><g stroke-linecap="round" transform="translate(10 252.2334605597964) rotate(0 6 10.5)"><path d="M3 0 L10.31 0.19 L11.81 1.69 L12 18 L11.81 19.31 L10.31 20.81 L1.69 20.81 L0.19 19.31 L0.19 1.69 L0.75 0.75 L3 0" stroke="none" stroke-width="0" fill="#fab005"></path><path d="M3 0 M3 0 C4.32 0, 5.64 0, 9 0 M3 0 C4.51 0, 6.01 0, 9 0 M9 0 C11 0, 12 1, 12 3 M9 0 C11 0, 12 1, 12 3 M12 3 C12 6.24, 12 9.48, 12 18 M12 3 C12 6.23, 12 9.47, 12 18 M12 18 C12 20, 11 21, 9 21 M12 18 C12 20, 11 21, 9 21 M9 21 C6.88 21, 4.76 21, 3 21 M9 21 C7.76 21, 6.51 21, 3 21 M3 21 C1 21, 0 20, 0 18 M3 21 C1 21, 0 20, 0 18 M0 18 C0 12.67, 0 7.34, 0 3 M0 18 C0 12.7, 0 7.41, 0 3 M0 3 C0 1, 1 0, 3 0 M0 3 C0 1, 1 0, 3 0" stroke="#000000" stroke-width="1" fill="none"></path></g><g stroke-linecap="round" transform="translate(512 250.2334605597964) rotate(0 6 10.5)"><path d="M3 0 L10.31 0.19 L11.81 1.69 L12 18 L11.81 19.31 L10.31 20.81 L1.69 20.81 L0.19 19.31 L0.19 1.69 L0.75 0.75 L3 0" stroke="none" stroke-width="0" fill="#fab005"></path><path d="M3 0 M3 0 C4.97 0, 6.94 0, 9 0 M3 0 C5.3 0, 7.6 0, 9 0 M9 0 C11 0, 12 1, 12 3 M9 0 C11 0, 12 1, 12 3 M12 3 C12 7.01, 12 11.02, 12 18 M12 3 C12 7.47, 12 11.94, 12 18 M12 18 C12 20, 11 21, 9 21 M12 18 C12 20, 11 21, 9 21 M9 21 C7.49 21, 5.97 21, 3 21 M9 21 C6.6 21, 4.21 21, 3 21 M3 21 C1 21, 0 20, 0 18 M3 21 C1 21, 0 20, 0 18 M0 18 C0 13.98, 0 9.96, 0 3 M0 18 C0 13.92, 0 9.85, 0 3 M0 3 C0 1, 1 0, 3 0 M0 3 C0 1, 1 0, 3 0" stroke="#000000" stroke-width="1" fill="none"></path></g><g stroke-linecap="round" transform="translate(12.512990667151712 273.40033933665654) rotate(0 3.3333333333333144 3.0864197530864317)"><path d="M1.54 0 L6.28 0.39 L6.28 5.79 L0.39 5.79 L0 1.54 L0.39 0.39 L1.54 0" stroke="none" stroke-width="0" fill="#ced4da"></path><path d="M1.54 0 M1.54 0 C2.57 0, 3.6 0, 5.12 0 M1.54 0 C2.61 0, 3.67 0, 5.12 0 M5.12 0 C6.15 0, 6.67 0.51, 6.67 1.54 M5.12 0 C6.15 0, 6.67 0.51, 6.67 1.54 M6.67 1.54 C6.67 2.78, 6.67 4.01, 6.67 4.63 M6.67 1.54 C6.67 2.18, 6.67 2.81, 6.67 4.63 M6.67 4.63 C6.67 5.66, 6.15 6.17, 5.12 6.17 M6.67 4.63 C6.67 5.66, 6.15 6.17, 5.12 6.17 M5.12 6.17 C3.76 6.17, 2.4 6.17, 1.54 6.17 M5.12 6.17 C4.29 6.17, 3.45 6.17, 1.54 6.17 M1.54 6.17 C0.51 6.17, 0 5.66, 0 4.63 M1.54 6.17 C0.51 6.17, 0 5.66, 0 4.63 M0 4.63 C0 3.79, 0 2.96, 0 1.54 M0 4.63 C0 3.92, 0 3.21, 0 1.54 M0 1.54 C0 0.51, 0.51 0, 1.54 0 M0 1.54 C0 0.51, 0.51 0, 1.54 0" stroke="#000000" stroke-width="1" fill="none"></path></g><g stroke-linecap="round" transform="translate(515.1086696794972 271.34704437502796) rotate(0 3.3333333333333144 3.0864197530864317)"><path d="M1.54 0 L6.28 0.39 L6.28 5.79 L0.39 5.79 L0 1.54 L0.39 0.39 L1.54 0" stroke="none" stroke-width="0" fill="#ced4da"></path><path d="M1.54 0 M1.54 0 C2.47 0, 3.4 0, 5.12 0 M1.54 0 C2.86 0, 4.17 0, 5.12 0 M5.12 0 C6.15 0, 6.67 0.51, 6.67 1.54 M5.12 0 C6.15 0, 6.67 0.51, 6.67 1.54 M6.67 1.54 C6.67 2.55, 6.67 3.56, 6.67 4.63 M6.67 1.54 C6.67 2.38, 6.67 3.22, 6.67 4.63 M6.67 4.63 C6.67 5.66, 6.15 6.17, 5.12 6.17 M6.67 4.63 C6.67 5.66, 6.15 6.17, 5.12 6.17 M5.12 6.17 C4.19 6.17, 3.25 6.17, 1.54 6.17 M5.12 6.17 C4.26 6.17, 3.4 6.17, 1.54 6.17 M1.54 6.17 C0.51 6.17, 0 5.66, 0 4.63 M1.54 6.17 C0.51 6.17, 0 5.66, 0 4.63 M0 4.63 C0 3.53, 0 2.44, 0 1.54 M0 4.63 C0 3.44, 0 2.25, 0 1.54 M0 1.54 C0 0.51, 0.51 0, 1.54 0 M0 1.54 C0 0.51, 0.51 0, 1.54 0" stroke="#000000" stroke-width="1" fill="none"></path></g></svg>